<?xml version="1.0" encoding="UTF-8" standalone="no"?>
<!-- Created with Inkscape (http://www.inkscape.org/) -->

<svg
   xmlns:dc="http://purl.org/dc/elements/1.1/"
   xmlns:cc="http://creativecommons.org/ns#"
   xmlns:rdf="http://www.w3.org/1999/02/22-rdf-syntax-ns#"
   xmlns:svg="http://www.w3.org/2000/svg"
   xmlns="http://www.w3.org/2000/svg"
   xmlns:sodipodi="http://sodipodi.sourceforge.net/DTD/sodipodi-0.dtd"
   xmlns:inkscape="http://www.inkscape.org/namespaces/inkscape"
   width="200"
   height="200"
   viewBox="0 0 199.99999 200"
   id="svg4691"
   version="1.1"
   inkscape:version="0.91 r13725"
   sodipodi:docname="reload.svg"
   inkscape:export-filename="D:\ev\github\morpheus-icons\png\base\reload.png"
   inkscape:export-xdpi="9.0712738"
   inkscape:export-ydpi="9.0712738">
  <defs
     id="defs4693" />
  <sodipodi:namedview
     id="base"
     pagecolor="#ffffff"
     bordercolor="#666666"
     borderopacity="1.0"
     inkscape:pageopacity="0.0"
     inkscape:pageshadow="2"
     inkscape:zoom="2.8"
     inkscape:cx="69.404875"
     inkscape:cy="87.976795"
     inkscape:document-units="px"
     inkscape:current-layer="layer1"
     showgrid="false"
     units="px"
     inkscape:window-width="1920"
     inkscape:window-height="1033"
     inkscape:window-x="-4"
     inkscape:window-y="-4"
     inkscape:window-maximized="1" />
  <metadata
     id="metadata4696">
    <rdf:RDF>
      <cc:Work
         rdf:about="">
        <dc:format>image/svg+xml</dc:format>
        <dc:type
           rdf:resource="http://purl.org/dc/dcmitype/StillImage" />
        <dc:title></dc:title>
      </cc:Work>
    </rdf:RDF>
  </metadata>
  <g
     inkscape:label="Capa 1"
     inkscape:groupmode="layer"
     id="layer1"
     transform="translate(0,-852.36216)">
    <path
       style="color:#000000;font-style:normal;font-variant:normal;font-weight:normal;font-stretch:normal;font-size:medium;line-height:normal;font-family:sans-serif;text-indent:0;text-align:start;text-decoration:none;text-decoration-line:none;text-decoration-style:solid;text-decoration-color:#000000;letter-spacing:normal;word-spacing:normal;text-transform:none;direction:ltr;block-progression:tb;writing-mode:lr-tb;baseline-shift:baseline;text-anchor:start;white-space:normal;clip-rule:nonzero;display:inline;overflow:visible;visibility:visible;opacity:1;isolation:auto;mix-blend-mode:normal;color-interpolation:sRGB;color-interpolation-filters:linearRGB;solid-color:#000000;solid-opacity:1;fill:#000000;fill-opacity:1;fill-rule:nonzero;stroke:none;stroke-width:8;stroke-linecap:butt;stroke-linejoin:miter;stroke-miterlimit:4;stroke-dasharray:none;stroke-dashoffset:0;stroke-opacity:1;color-rendering:auto;image-rendering:auto;shape-rendering:auto;text-rendering:auto;enable-background:accumulate"
       d="m 145.12637,1012.7971 c 8.40101,-5.7947 15.70153,-13.19831 21.40562,-21.86918 5.70407,-8.67076 9.81169,-18.60884 11.8269,-29.47261 2.01519,-10.86379 1.74523,-21.61403 -0.4695,-31.75393 -2.21472,-10.13992 -6.37419,-19.66952 -12.13795,-28.09199 -5.76377,-8.42248 -13.13183,-15.73787 -21.76376,-21.44936 -8.63193,-5.71149 -18.5277,-9.81911 -29.3469,-11.82605 -10.81919,-2.00693 -21.529825,-1.72176 -31.635923,0.51386 -10.1061,2.23563 -19.607665,6.42174 -28.008731,12.21667 -8.401068,5.79495 -15.701636,13.19873 -21.405739,21.86972 -5.704103,8.67098 -9.811741,18.60917 -11.826948,29.47296 -2.015209,10.86377 -1.745212,21.61392 0.469541,31.75366 2.214751,10.13976 6.374261,19.66917 12.13807,28.09145 5.763792,8.4223 13.131903,15.7374 21.763851,21.4487 l -3.829732,5.8451 c -9.387294,-6.2199 -17.404854,-14.1869 -23.679784,-23.35515 -6.274914,-9.16838 -10.807181,-19.5381 -13.223895,-30.56368 -2.416712,-11.02558 -2.717864,-22.70698 -0.530539,-34.49862 2.187323,-11.79165 6.658047,-22.58798 12.86838,-32.01343 6.210334,-9.42545 14.160274,-17.48 23.306031,-23.78807 9.145756,-6.30806 19.487326,-10.86963 30.480921,-13.30911 10.993582,-2.43947 22.639207,-2.75685 34.393037,-0.57654 11.75383,2.18031 22.51085,6.65333 31.8981,12.8734 9.38726,6.22009 17.40479,14.18723 23.67967,23.35578 6.27487,9.16857 10.80711,19.53853 13.22379,30.56427 2.41668,11.02575 2.71781,22.70726 0.53049,34.49889 -2.18732,11.79164 -6.65803,22.58792 -12.86833,32.01309 -6.21032,9.42527 -14.16021,17.47967 -23.30593,23.78757 z"
       id="path4135"
       inkscape:connector-curvature="0"
       sodipodi:nodetypes="cssssssssssssccsssssssssssccc" />
    <text
       xml:space="preserve"
       style="font-style:normal;font-weight:normal;font-size:40px;line-height:125%;font-family:sans-serif;letter-spacing:0px;word-spacing:0px;fill:#000000;fill-opacity:1;stroke:none;stroke-width:1px;stroke-linecap:butt;stroke-linejoin:miter;stroke-opacity:1"
       x="88.214279"
       y="940.2193"
       id="text4137"
       sodipodi:linespacing="125%"><tspan
         sodipodi:role="line"
         id="tspan4139"
         x="88.214279"
         y="940.2193" /></text>
    <text
       xml:space="preserve"
       style="font-style:normal;font-weight:normal;font-size:40px;line-height:125%;font-family:sans-serif;letter-spacing:0px;word-spacing:0px;fill:#000000;fill-opacity:1;stroke:none;stroke-width:1px;stroke-linecap:butt;stroke-linejoin:miter;stroke-opacity:1"
       x="83.928566"
       y="942.7193"
       id="text4141"
       sodipodi:linespacing="125%"><tspan
         sodipodi:role="line"
         id="tspan4143"
         x="83.928566"
         y="942.7193"
         style="font-style:normal;font-variant:normal;font-weight:normal;font-stretch:normal;font-family:Courier;-inkscape-font-specification:Courier" /></text>
    <circle
       style="fill:#000000;fill-opacity:1;stroke:#000000;stroke-width:5.19453907;stroke-linecap:round;stroke-linejoin:round;stroke-miterlimit:4;stroke-dasharray:none;stroke-dashoffset:0;stroke-opacity:1"
       id="path4148"
       cx="97.678566"
       cy="1023.255"
       r="24.581303" />
    <path
       style="fill:#000000;fill-rule:evenodd;stroke:#000000;stroke-width:0.56453764;stroke-linecap:butt;stroke-linejoin:miter;stroke-miterlimit:4;stroke-dasharray:none;stroke-opacity:1"
       d="m 19.664968,1012.9311 31.585818,-26.65899 7.787916,43.43729 z"
       id="path4150"
       inkscape:connector-curvature="0"
       inkscape:transform-center-x="-3.8487429"
       inkscape:transform-center-y="-1.6896486" />
  </g>
</svg>
