<?xml version="1.0" encoding="UTF-8" standalone="no"?>
<!-- Generator: Adobe Illustrator 16.0.0, SVG Export Plug-In . SVG Version: 6.00 Build 0)  -->

<svg
   xmlns:dc="http://purl.org/dc/elements/1.1/"
   xmlns:cc="http://creativecommons.org/ns#"
   xmlns:rdf="http://www.w3.org/1999/02/22-rdf-syntax-ns#"
   xmlns:svg="http://www.w3.org/2000/svg"
   xmlns="http://www.w3.org/2000/svg"
   xmlns:sodipodi="http://sodipodi.sourceforge.net/DTD/sodipodi-0.dtd"
   xmlns:inkscape="http://www.inkscape.org/namespaces/inkscape"
   version="1.1"
   id="Layer_1"
   x="0px"
   y="0px"
   width="200"
   height="200"
   viewBox="0 0 200 200"
   enable-background="new 0 0 512 512"
   xml:space="preserve"
   inkscape:version="0.91 r13725"
   sodipodi:docname="gear.svg"
   inkscape:export-filename="D:\ev\github\morpheus-icons\png\tool\gear.png"
   inkscape:export-xdpi="9.0712738"
   inkscape:export-ydpi="9.0712738"><metadata
     id="metadata11"><rdf:RDF><cc:Work
         rdf:about=""><dc:format>image/svg+xml</dc:format><dc:type
           rdf:resource="http://purl.org/dc/dcmitype/StillImage" /><dc:title></dc:title></cc:Work></rdf:RDF></metadata><defs
     id="defs9" /><sodipodi:namedview
     pagecolor="#ffffff"
     bordercolor="#666666"
     borderopacity="1"
     objecttolerance="10"
     gridtolerance="10"
     guidetolerance="10"
     inkscape:pageopacity="0"
     inkscape:pageshadow="2"
     inkscape:window-width="1920"
     inkscape:window-height="1033"
     id="namedview7"
     showgrid="false"
     inkscape:zoom="0.921875"
     inkscape:cx="-30.728168"
     inkscape:cy="70.871025"
     inkscape:window-x="-4"
     inkscape:window-y="-4"
     inkscape:window-maximized="1"
     inkscape:current-layer="g4156" /><ellipse
     style="fill:none;fill-opacity:1;stroke:#000000;stroke-width:8;stroke-miterlimit:4;stroke-dasharray:none;stroke-opacity:1"
     id="path4135"
     cx="100.56348"
     cy="-100.83432"
     transform="scale(1,-1)"
     rx="94.879158"
     ry="95.225403"
     inkscape:export-filename="D:\ev\github\morpheus-icons\png\path4135.png"
     inkscape:export-xdpi="9.0712738"
     inkscape:export-ydpi="9.0712738" /><g
     id="g4156"
     transform="matrix(0.35598051,0,0,0.35598051,3.3041822,9.1056818)"><path
       id="path4146"
       d="m 472.4593,281.75995 0,-48.53247 -44.04462,-16.17522 c -3.83605,-14.81598 -8.98247,-28.80771 -16.58803,-41.66967 l 0.44132,-0.057 20.96315,-43.66035 -34.21891,-34.312607 -43.61281,20.774417 -0.0421,0.0611 c -12.86196,-7.60559 -26.82925,-12.4329 -41.64794,-16.26488 l -16.16572,-44.480508 -48.52975,0 -16.17658,44.483228 c -14.81869,3.83062 -28.80499,9.19837 -41.66696,16.80936 l -0.0652,-0.33675 -43.65491,-20.910208 -34.31261,34.244718 20.77441,43.62096 0.0679,0.053 c -7.61099,12.86061 -15.15273,26.8374 -18.98334,41.65338 l -47.189493,16.16703 0,48.53247 47.190873,16.17658 c 3.83061,14.8214 10.55626,28.80227 18.16861,41.66695 l 0.33811,0.0611 -20.56801,43.65219 34.41309,34.3194 43.70787,-20.77305 0.0883,-0.0625 c 12.86468,7.60013 26.86185,14.70055 41.68054,18.53796 l 16.1874,46.75638 48.52975,0 16.1793,-46.75498 c 14.81869,-3.83741 28.79956,-10.339 41.66152,-17.94456 l 0.0679,-0.23763 43.65762,20.62911 34.30989,-34.39 -20.77441,-43.69972 -0.0625,-0.0828 c 7.60556,-12.86333 11.99699,-26.8537 15.83303,-41.67103 l 44.04327,-16.18337 z m -199.1785,56.61871 c -44.67061,0 -80.88427,-36.20415 -80.88427,-80.88291 0,-44.66926 36.21366,-80.88699 80.88427,-80.88699 44.67605,0 80.88427,36.21773 80.88427,80.88699 0,44.67876 -36.20822,80.88291 -80.88427,80.88291 z"
       inkscape:connector-curvature="0" /></g></svg>