<?xml version="1.0" encoding="UTF-8" standalone="no"?>
<!-- Created with Inkscape (http://www.inkscape.org/) -->

<svg
   xmlns:dc="http://purl.org/dc/elements/1.1/"
   xmlns:cc="http://creativecommons.org/ns#"
   xmlns:rdf="http://www.w3.org/1999/02/22-rdf-syntax-ns#"
   xmlns:svg="http://www.w3.org/2000/svg"
   xmlns="http://www.w3.org/2000/svg"
   xmlns:sodipodi="http://sodipodi.sourceforge.net/DTD/sodipodi-0.dtd"
   xmlns:inkscape="http://www.inkscape.org/namespaces/inkscape"
   width="200"
   height="200"
   viewBox="0 0 199.99999 200"
   id="svg4691"
   version="1.1"
   inkscape:version="0.91 r13725"
   sodipodi:docname="poll.svg"
   inkscape:export-filename="D:\ev\github\morpheus-icons\png\tool\poll.png"
   inkscape:export-xdpi="9.0712738"
   inkscape:export-ydpi="9.0712738">
  <defs
     id="defs4693" />
  <sodipodi:namedview
     id="base"
     pagecolor="#ffffff"
     bordercolor="#666666"
     borderopacity="1.0"
     inkscape:pageopacity="0.0"
     inkscape:pageshadow="2"
     inkscape:zoom="2.8"
     inkscape:cx="19.748878"
     inkscape:cy="103.21816"
     inkscape:document-units="px"
     inkscape:current-layer="layer1"
     showgrid="false"
     units="px"
     inkscape:window-width="1440"
     inkscape:window-height="881"
     inkscape:window-x="1916"
     inkscape:window-y="-4"
     inkscape:window-maximized="1" />
  <metadata
     id="metadata4696">
    <rdf:RDF>
      <cc:Work
         rdf:about="">
        <dc:format>image/svg+xml</dc:format>
        <dc:type
           rdf:resource="http://purl.org/dc/dcmitype/StillImage" />
        <dc:title />
      </cc:Work>
    </rdf:RDF>
  </metadata>
  <g
     inkscape:label="Capa 1"
     inkscape:groupmode="layer"
     id="layer1"
     transform="translate(0,-852.36216)">
    <ellipse
       style="fill:none;fill-opacity:1;stroke:#000000;stroke-width:8;stroke-miterlimit:4;stroke-dasharray:none;stroke-opacity:1"
       id="path4135"
       cx="100.32076"
       cy="-953.04071"
       transform="scale(1,-1)"
       rx="94.879158"
       ry="95.225403"
       inkscape:export-filename="D:\ev\github\morpheus-icons\png\path4135.png"
       inkscape:export-xdpi="9.0712738"
       inkscape:export-ydpi="9.0712738" />
    <text
       xml:space="preserve"
       style="font-style:normal;font-weight:normal;font-size:40px;line-height:125%;font-family:sans-serif;letter-spacing:0px;word-spacing:0px;fill:#000000;fill-opacity:1;stroke:none;stroke-width:1px;stroke-linecap:butt;stroke-linejoin:miter;stroke-opacity:1"
       x="88.214279"
       y="940.2193"
       id="text4137"
       sodipodi:linespacing="125%"><tspan
         sodipodi:role="line"
         id="tspan4139"
         x="88.214279"
         y="940.2193" /></text>
    <text
       xml:space="preserve"
       style="font-style:normal;font-weight:normal;font-size:40px;line-height:125%;font-family:sans-serif;letter-spacing:0px;word-spacing:0px;fill:#000000;fill-opacity:1;stroke:none;stroke-width:1px;stroke-linecap:butt;stroke-linejoin:miter;stroke-opacity:1"
       x="83.928566"
       y="942.7193"
       id="text4141"
       sodipodi:linespacing="125%"><tspan
         sodipodi:role="line"
         id="tspan4143"
         x="83.928566"
         y="942.7193"
         style="font-style:normal;font-variant:normal;font-weight:normal;font-stretch:normal;font-family:Courier;-inkscape-font-specification:Courier" /></text>
    <rect
       style="fill:none;fill-opacity:1;stroke:#000000;stroke-width:3.14088392;stroke-linecap:round;stroke-linejoin:miter;stroke-miterlimit:4;stroke-dasharray:none;stroke-opacity:1"
       id="rect4140"
       width="23.930546"
       height="23.930546"
       x="33.856152"
       y="911.11731" />
    <rect
       y="942.81067"
       x="33.856152"
       height="23.930546"
       width="23.930546"
       id="rect4142"
       style="fill:none;fill-opacity:1;stroke:#000000;stroke-width:3.14088392;stroke-linecap:round;stroke-linejoin:miter;stroke-miterlimit:4;stroke-dasharray:none;stroke-opacity:1" />
    <rect
       style="fill:none;fill-opacity:1;stroke:#000000;stroke-width:3.14088392;stroke-linecap:round;stroke-linejoin:miter;stroke-miterlimit:4;stroke-dasharray:none;stroke-opacity:1"
       id="rect4144"
       width="23.930546"
       height="23.930546"
       x="33.856152"
       y="974.50403" />
    <path
       style="fill:none;fill-rule:evenodd;stroke:#000000;stroke-width:8;stroke-linecap:butt;stroke-linejoin:miter;stroke-miterlimit:4;stroke-dasharray:none;stroke-dashoffset:0;stroke-opacity:1"
       d="m 66.714277,927.07645 c 0.476191,-0.23809 0.952381,-0.47619 1.428572,-0.71428 0.119047,-0.11905 0.21706,-0.26376 0.357143,-0.35715 0.22149,-0.14766 0.492795,-0.20948 0.714285,-0.35714 0.420249,-0.28017 0.677031,-0.75591 1.071429,-1.07143 0.335174,-0.26814 0.703365,-0.49345 1.071428,-0.71428 0.228264,-0.13696 0.526055,-0.16892 0.714286,-0.35715 0.188231,-0.18823 0.168912,-0.52605 0.357143,-0.71428 0.237624,-0.23763 0.476662,0.23762 0.714286,0 0.08418,-0.0842 -0.08418,-0.27297 0,-0.35715 0.168358,-0.16835 0.501327,0.10648 0.714285,0 0.150585,-0.0753 0.197424,-0.3039 0.357143,-0.35714 0.338816,-0.11294 0.714286,0 1.071429,0 0.248407,0 1.656559,-0.0646 1.785714,0 0.789663,0.39483 0.110829,0.22166 0.357143,0.71429 0.07529,0.15058 0.281851,0.20656 0.357143,0.35714 0.05111,0.10222 0,1.59492 0,1.78571 0,1.30953 0,2.61905 0,3.92858 0,0.16839 -0.01619,1.76952 0,1.78571 0.08418,0.0842 0.238095,0 0.357143,0 0.119047,0 0.238095,0 0.357143,0 0.160842,0 0.962737,0.0543 1.071428,0 0.150585,-0.0753 0.222456,-0.25613 0.357143,-0.35714 0.343386,-0.25754 0.714286,-0.47619 1.071429,-0.71429 2.245047,-1.4967 -0.218733,0.0818 2.5,-1.42857 0.606805,-0.33711 1.164837,-0.76099 1.785714,-1.07143 0.810923,-0.40546 1.716864,-0.6146 2.5,-1.07143 0.658438,-0.38409 1.132067,-1.03638 1.785714,-1.42857 0.549731,-0.32984 1.199878,-0.45391 1.785714,-0.71428 1.608199,-0.71476 1.151225,-0.78711 2.857143,-1.07143 0.03321,-0.005 1.695194,-0.0453 1.785714,0 0.789659,0.39483 0.110829,0.22166 0.357139,0.71428 0.15059,0.30117 0.52751,0.43412 0.71429,0.71429 0.14766,0.22149 0.16891,0.52605 0.35714,0.71428 0.0842,0.0842 0.27296,-0.0842 0.35714,0 0.0842,0.0842 -0.0532,0.25067 0,0.35715 0.0474,0.0948 0.97661,1.02401 1.07143,1.07143 0.21296,0.10648 0.54593,-0.16836 0.71429,0 0.0842,0.0842 -0.0842,0.27296 0,0.35714 0.16836,0.16836 0.50132,-0.10648 0.71428,0 0.15059,0.0753 0.19743,0.3039 0.35715,0.35714 0.33881,0.11294 0.71428,0 1.07142,0 0.59524,0 1.19048,0 1.78572,0 0.23809,0 0.4833,0.0577 0.71428,0 0.25825,-0.0646 0.47619,-0.23809 0.71429,-0.35714 0.71429,-0.35714 1.40569,-0.76428 2.14286,-1.07143 3.73378,-1.55574 0.57079,0.25032 4.64285,-1.78571 0.62088,-0.31044 1.12718,-0.85192 1.78572,-1.07143 0.79859,-0.2662 1.68787,-0.13565 2.5,-0.35715 0.51364,-0.14008 0.95238,-0.47619 1.42857,-0.71428 0.2381,-0.11905 0.45326,-0.30494 0.71429,-0.35714 0.3502,-0.07 0.71428,0 1.07142,0 0.11905,0 0.2381,0 0.35715,0 0.11904,0 0.27296,-0.0842 0.35714,0 0.0842,0.0842 -0.0842,0.27296 0,0.35714 0.0842,0.0842 0.27296,-0.0842 0.35714,0 0.0842,0.0842 -0.0842,0.27296 0,0.35714 0.0842,0.0842 0.27297,-0.0842 0.35715,0 0.0842,0.0842 -0.0532,0.25067 0,0.35714 0.0753,0.15059 0.28185,0.20656 0.35714,0.35715 0.0532,0.10648 0,0.23809 0,0.35714 0.11905,0.11905 0.28185,0.20656 0.35714,0.35714 0.0532,0.10648 -0.0532,0.25067 0,0.35715 0.0753,0.15058 0.28185,0.20655 0.35714,0.35714 0.24632,0.49263 -0.43252,0.31945 0.35715,0.71428 0.08,0.04 1.3437,0 1.42857,0 0.4298,0 1.0263,0.0805 1.42857,0 0.73869,-0.14773 2.32423,-0.91917 2.85714,-1.07142 1.05534,-0.30153 2.15378,-0.43149 3.21429,-0.71429 1.33349,-0.3556 3.46113,-1.19485 4.64286,-1.78571 4.05809,-2.02905 0.84968,-1.01096 5,-2.14286 1.52126,-0.41489 1.0048,-0.35714 2.14285,-0.35714 0.11905,0 0.25067,-0.0532 0.35715,0 0.6267,0.31335 0.69099,1.27846 1.07142,1.78571 0.20203,0.26937 0.52751,0.43412 0.71429,0.71429 0.58843,0.88264 0.75397,1.54761 1.07143,2.5 0.11905,0.35714 0.29525,0.70008 0.35714,1.07142 0.081,0.48599 0,1.87493 0,2.5 0,0.11905 -0.0842,0.27297 0,0.35715 0.0842,0.0842 0.25066,-0.0532 0.35714,0 0.15059,0.0753 0.20656,0.28185 0.35715,0.35714 0.0187,0.009 1.05274,0.009 1.07143,0 0.15058,-0.0753 0.20655,-0.28185 0.35714,-0.35714 0.33672,-0.16836 0.71894,-0.22496 1.07143,-0.35715 0.60027,-0.2251 1.20208,-0.449 1.78571,-0.71428 0.72702,-0.33046 1.40138,-0.77484 2.14286,-1.07143 3.57857,-1.43143 -0.37453,0.36149 2.5,-0.35714 0.16333,-0.0408 0.19742,-0.30391 0.35714,-0.35715 0.33882,-0.11293 0.71429,0 1.07143,0 0.11905,0 0.25066,-0.0532 0.35714,0 0.15059,0.0753 0.2381,0.2381 0.35715,0.35715 0.11904,0.11904 0.26375,0.21706 0.35714,0.35714 0.14766,0.22149 0.16891,0.52606 0.35714,0.71429 0.18823,0.18823 0.48602,0.22018 0.71429,0.35714 0.76769,0.46061 1.1932,0.83605 1.78571,1.42857 0.11905,0.11905 0.20656,0.28185 0.35714,0.35714 0.28572,0.14286 0.78572,-0.14285 1.07143,0 0.15059,0.0753 0.20656,0.28185 0.35715,0.35715 0.21686,0.10843 1.92599,-0.10844 2.14285,0 0.15059,0.0753 0.20656,0.28185 0.35715,0.35714 0.1416,0.0708 0.99841,-0.073 1.07142,0 0.0842,0.0842 -0.0842,0.27296 0,0.35714 0.0842,0.0842 0.2381,0 0.35715,0 0.0866,0 1.05994,0.0115 1.07143,0 0.0842,-0.0842 -0.0842,-0.27296 0,-0.35714 0.073,-0.073 0.92982,0.0708 1.07142,0 0.15059,-0.0753 0.21706,-0.26376 0.35715,-0.35714 2.58949,-1.29475 -0.5647,0.37646 1.07143,-0.71429 0.22149,-0.14766 0.52605,-0.16891 0.71428,-0.35714 0.0842,-0.0842 -0.23809,0 -0.35714,0"
       id="path4146"
       inkscape:connector-curvature="0" />
    <path
       inkscape:connector-curvature="0"
       id="path4148"
       d="m 66.714277,957.07645 c 0.476191,-0.23809 0.952381,-0.47619 1.428572,-0.71428 0.119047,-0.11905 0.21706,-0.26376 0.357143,-0.35715 0.22149,-0.14766 0.492795,-0.20948 0.714285,-0.35714 0.420249,-0.28017 0.677031,-0.75591 1.071429,-1.07143 0.335174,-0.26814 0.703365,-0.49345 1.071428,-0.71428 0.228264,-0.13696 0.526055,-0.16892 0.714286,-0.35715 0.188231,-0.18823 0.168912,-0.52605 0.357143,-0.71428 0.237624,-0.23763 0.476662,0.23762 0.714286,0 0.08418,-0.0842 -0.08418,-0.27297 0,-0.35715 0.168358,-0.16835 0.501327,0.10648 0.714285,0 0.150585,-0.0753 0.197424,-0.3039 0.357143,-0.35714 0.338816,-0.11294 0.714286,0 1.071429,0 0.248407,0 1.656559,-0.0646 1.785714,0 0.789663,0.39483 0.110829,0.22166 0.357143,0.71429 0.07529,0.15058 0.281851,0.20656 0.357143,0.35714 0.05111,0.10222 0,1.59492 0,1.78571 0,1.30953 0,2.61905 0,3.92858 0,0.16839 -0.01619,1.76952 0,1.78571 0.08418,0.0842 0.238095,0 0.357143,0 0.119047,0 0.238095,0 0.357143,0 0.160842,0 0.962737,0.0543 1.071428,0 0.150585,-0.0753 0.222456,-0.25613 0.357143,-0.35714 0.343386,-0.25754 0.714286,-0.47619 1.071429,-0.71429 2.245047,-1.4967 -0.218733,0.0818 2.5,-1.42857 0.606805,-0.33711 1.164837,-0.76099 1.785714,-1.07143 0.810923,-0.40546 1.716864,-0.6146 2.5,-1.07143 0.658438,-0.38409 1.132067,-1.03638 1.785714,-1.42857 0.549731,-0.32984 1.199878,-0.45391 1.785714,-0.71428 1.608199,-0.71476 1.151225,-0.78711 2.857143,-1.07143 0.03321,-0.005 1.695194,-0.0453 1.785714,0 0.789659,0.39483 0.110829,0.22166 0.357139,0.71428 0.15059,0.30117 0.52751,0.43412 0.71429,0.71429 0.14766,0.22149 0.16891,0.52605 0.35714,0.71428 0.0842,0.0842 0.27296,-0.0842 0.35714,0 0.0842,0.0842 -0.0532,0.25067 0,0.35715 0.0474,0.0948 0.97661,1.02401 1.07143,1.07143 0.21296,0.10648 0.54593,-0.16836 0.71429,0 0.0842,0.0842 -0.0842,0.27296 0,0.35714 0.16836,0.16836 0.50132,-0.10648 0.71428,0 0.15059,0.0753 0.19743,0.3039 0.35715,0.35714 0.33881,0.11294 0.71428,0 1.07142,0 0.59524,0 1.19048,0 1.78572,0 0.23809,0 0.4833,0.0577 0.71428,0 0.25825,-0.0646 0.47619,-0.23809 0.71429,-0.35714 0.71429,-0.35714 1.40569,-0.76428 2.14286,-1.07143 3.73378,-1.55574 0.57079,0.25032 4.64285,-1.78571 0.62088,-0.31044 1.12718,-0.85192 1.78572,-1.07143 0.79859,-0.2662 1.68787,-0.13565 2.5,-0.35715 0.51364,-0.14008 0.95238,-0.47619 1.42857,-0.71428 0.2381,-0.11905 0.45326,-0.30494 0.71429,-0.35714 0.3502,-0.07 0.71428,0 1.07142,0 0.11905,0 0.2381,0 0.35715,0 0.11904,0 0.27296,-0.0842 0.35714,0 0.0842,0.0842 -0.0842,0.27296 0,0.35714 0.0842,0.0842 0.27296,-0.0842 0.35714,0 0.0842,0.0842 -0.0842,0.27296 0,0.35714 0.0842,0.0842 0.27297,-0.0842 0.35715,0 0.0842,0.0842 -0.0532,0.25067 0,0.35714 0.0753,0.15059 0.28185,0.20656 0.35714,0.35715 0.0532,0.10648 0,0.23809 0,0.35714 0.11905,0.11905 0.28185,0.20656 0.35714,0.35714 0.0532,0.10648 -0.0532,0.25067 0,0.35715 0.0753,0.15058 0.28185,0.20655 0.35714,0.35714 0.24632,0.49263 -0.43252,0.31945 0.35715,0.71428 0.08,0.04 1.3437,0 1.42857,0 0.4298,0 1.0263,0.0805 1.42857,0 0.73869,-0.14773 2.32423,-0.91917 2.85714,-1.07142 1.05534,-0.30153 2.15378,-0.43149 3.21429,-0.71429 1.33349,-0.3556 3.46113,-1.19485 4.64286,-1.78571 4.05809,-2.02905 0.84968,-1.01096 5,-2.14286 1.52126,-0.41489 1.0048,-0.35714 2.14285,-0.35714 0.11905,0 0.25067,-0.0532 0.35715,0 0.6267,0.31335 0.69099,1.27846 1.07142,1.78571 0.20203,0.26937 0.52751,0.43412 0.71429,0.71429 0.58843,0.88264 0.75397,1.54761 1.07143,2.5 0.11905,0.35714 0.29525,0.70008 0.35714,1.07142 0.081,0.48599 0,1.87493 0,2.5 0,0.11905 -0.0842,0.27297 0,0.35715 0.0842,0.0842 0.25066,-0.0532 0.35714,0 0.15059,0.0753 0.20656,0.28185 0.35715,0.35714 0.0187,0.009 1.05274,0.009 1.07143,0 0.15058,-0.0753 0.20655,-0.28185 0.35714,-0.35714 0.33672,-0.16836 0.71894,-0.22496 1.07143,-0.35715 0.60027,-0.2251 1.20208,-0.449 1.78571,-0.71428 0.72702,-0.33046 1.40138,-0.77484 2.14286,-1.07143 3.57857,-1.43143 -0.37453,0.36149 2.5,-0.35714 0.16333,-0.0408 0.19742,-0.30391 0.35714,-0.35715 0.33882,-0.11293 0.71429,0 1.07143,0 0.11905,0 0.25066,-0.0532 0.35714,0 0.15059,0.0753 0.2381,0.2381 0.35715,0.35715 0.11904,0.11904 0.26375,0.21706 0.35714,0.35714 0.14766,0.22149 0.16891,0.52606 0.35714,0.71429 0.18823,0.18823 0.48602,0.22018 0.71429,0.35714 0.76769,0.46061 1.1932,0.83605 1.78571,1.42857 0.11905,0.11905 0.20656,0.28185 0.35714,0.35714 0.28572,0.14286 0.78572,-0.14285 1.07143,0 0.15059,0.0753 0.20656,0.28185 0.35715,0.35715 0.21686,0.10843 1.92599,-0.10844 2.14285,0 0.15059,0.0753 0.20656,0.28185 0.35715,0.35714 0.1416,0.0708 0.99841,-0.073 1.07142,0 0.0842,0.0842 -0.0842,0.27296 0,0.35714 0.0842,0.0842 0.2381,0 0.35715,0 0.0866,0 1.05994,0.0115 1.07143,0 0.0842,-0.0842 -0.0842,-0.27296 0,-0.35714 0.073,-0.073 0.92982,0.0708 1.07142,0 0.15059,-0.0753 0.21706,-0.26376 0.35715,-0.35714 2.58949,-1.29475 -0.5647,0.37646 1.07143,-0.71429 0.22149,-0.14766 0.52605,-0.16891 0.71428,-0.35714 0.0842,-0.0842 -0.23809,0 -0.35714,0"
       style="fill:none;fill-rule:evenodd;stroke:#000000;stroke-width:8;stroke-linecap:butt;stroke-linejoin:miter;stroke-miterlimit:4;stroke-dasharray:none;stroke-dashoffset:0;stroke-opacity:1" />
    <path
       style="fill:none;fill-rule:evenodd;stroke:#000000;stroke-width:8;stroke-linecap:butt;stroke-linejoin:miter;stroke-miterlimit:4;stroke-dasharray:none;stroke-dashoffset:0;stroke-opacity:1"
       d="m 66.714277,989.07645 c 0.476191,-0.23809 0.952381,-0.47619 1.428572,-0.71428 0.119047,-0.11905 0.21706,-0.26376 0.357143,-0.35715 0.22149,-0.14766 0.492795,-0.20948 0.714285,-0.35714 0.420249,-0.28017 0.677031,-0.75591 1.071429,-1.07143 0.335174,-0.26814 0.703365,-0.49345 1.071428,-0.71428 0.228264,-0.13696 0.526055,-0.16892 0.714286,-0.35715 0.188231,-0.18823 0.168912,-0.52605 0.357143,-0.71428 0.237624,-0.23763 0.476662,0.23762 0.714286,0 0.08418,-0.0842 -0.08418,-0.27297 0,-0.35715 0.168358,-0.16835 0.501327,0.10648 0.714285,0 0.150585,-0.0753 0.197424,-0.3039 0.357143,-0.35714 0.338816,-0.11294 0.714286,0 1.071429,0 0.248407,0 1.656559,-0.0646 1.785714,0 0.789663,0.39483 0.110829,0.22166 0.357143,0.71429 0.07529,0.15058 0.281851,0.20656 0.357143,0.35714 0.05111,0.10222 0,1.59492 0,1.78571 0,1.30953 0,2.61905 0,3.92858 0,0.16839 -0.01619,1.76952 0,1.78571 0.08418,0.0842 0.238095,0 0.357143,0 0.119047,0 0.238095,0 0.357143,0 0.160842,0 0.962737,0.0543 1.071428,0 0.150585,-0.0753 0.222456,-0.25613 0.357143,-0.35714 0.343386,-0.25754 0.714286,-0.47619 1.071429,-0.71429 2.245047,-1.4967 -0.218733,0.0818 2.5,-1.42857 0.606805,-0.33711 1.164837,-0.76099 1.785714,-1.07143 0.810923,-0.40546 1.716864,-0.6146 2.5,-1.07143 0.658438,-0.38409 1.132067,-1.03638 1.785714,-1.42857 0.549731,-0.32984 1.199878,-0.45391 1.785714,-0.71428 1.608199,-0.71476 1.151225,-0.78711 2.857143,-1.07143 0.03321,-0.005 1.695194,-0.0453 1.785714,0 0.789659,0.39483 0.110829,0.22166 0.357139,0.71428 0.15059,0.30117 0.52751,0.43412 0.71429,0.71429 0.14766,0.22149 0.16891,0.52605 0.35714,0.71428 0.0842,0.0842 0.27296,-0.0842 0.35714,0 0.0842,0.0842 -0.0532,0.25067 0,0.35715 0.0474,0.0948 0.97661,1.02401 1.07143,1.07143 0.21296,0.10648 0.54593,-0.16836 0.71429,0 0.0842,0.0842 -0.0842,0.27296 0,0.35714 0.16836,0.16836 0.50132,-0.10648 0.71428,0 0.15059,0.0753 0.19743,0.3039 0.35715,0.35714 0.33881,0.11294 0.71428,0 1.07142,0 0.59524,0 1.19048,0 1.78572,0 0.23809,0 0.4833,0.0577 0.71428,0 0.25825,-0.0646 0.47619,-0.23809 0.71429,-0.35714 0.71429,-0.35714 1.40569,-0.76428 2.14286,-1.07143 3.73378,-1.55574 0.57079,0.25032 4.64285,-1.78571 0.62088,-0.31044 1.12718,-0.85192 1.78572,-1.07143 0.79859,-0.2662 1.68787,-0.13565 2.5,-0.35715 0.51364,-0.14008 0.95238,-0.47619 1.42857,-0.71428 0.2381,-0.11905 0.45326,-0.30494 0.71429,-0.35714 0.3502,-0.07 0.71428,0 1.07142,0 0.11905,0 0.2381,0 0.35715,0 0.11904,0 0.27296,-0.0842 0.35714,0 0.0842,0.0842 -0.0842,0.27296 0,0.35714 0.0842,0.0842 0.27296,-0.0842 0.35714,0 0.0842,0.0842 -0.0842,0.27296 0,0.35714 0.0842,0.0842 0.27297,-0.0842 0.35715,0 0.0842,0.0842 -0.0532,0.25067 0,0.35714 0.0753,0.15059 0.28185,0.20656 0.35714,0.35715 0.0532,0.10648 0,0.23809 0,0.35714 0.11905,0.11905 0.28185,0.20656 0.35714,0.35714 0.0532,0.10648 -0.0532,0.25067 0,0.35715 0.0753,0.15058 0.28185,0.20655 0.35714,0.35714 0.24632,0.49263 -0.43252,0.31945 0.35715,0.71428 0.08,0.04 1.3437,0 1.42857,0 0.4298,0 1.0263,0.0805 1.42857,0 0.73869,-0.14773 2.32423,-0.91917 2.85714,-1.07142 1.05534,-0.30153 2.15378,-0.43149 3.21429,-0.71429 1.33349,-0.3556 3.46113,-1.19485 4.64286,-1.78571 4.05809,-2.02905 0.84968,-1.01096 5,-2.14286 1.52126,-0.41489 1.0048,-0.35714 2.14285,-0.35714 0.11905,0 0.25067,-0.0532 0.35715,0 0.6267,0.31335 0.69099,1.27846 1.07142,1.78571 0.20203,0.26937 0.52751,0.43412 0.71429,0.71429 0.58843,0.88264 0.75397,1.54761 1.07143,2.5 0.11905,0.35714 0.29525,0.70008 0.35714,1.07142 0.081,0.48599 0,1.87493 0,2.5 0,0.11905 -0.0842,0.27297 0,0.35715 0.0842,0.0842 0.25066,-0.0532 0.35714,0 0.15059,0.0753 0.20656,0.28185 0.35715,0.35714 0.0187,0.009 1.05274,0.009 1.07143,0 0.15058,-0.0753 0.20655,-0.28185 0.35714,-0.35714 0.33672,-0.16836 0.71894,-0.22496 1.07143,-0.35715 0.60027,-0.2251 1.20208,-0.449 1.78571,-0.71428 0.72702,-0.33046 1.40138,-0.77484 2.14286,-1.07143 3.57857,-1.43143 -0.37453,0.36149 2.5,-0.35714 0.16333,-0.0408 0.19742,-0.30391 0.35714,-0.35715 0.33882,-0.11293 0.71429,0 1.07143,0 0.11905,0 0.25066,-0.0532 0.35714,0 0.15059,0.0753 0.2381,0.2381 0.35715,0.35715 0.11904,0.11904 0.26375,0.21706 0.35714,0.35714 0.14766,0.22149 0.16891,0.52606 0.35714,0.71429 0.18823,0.18823 0.48602,0.22018 0.71429,0.35714 0.76769,0.46061 1.1932,0.83605 1.78571,1.42857 0.11905,0.11905 0.20656,0.28185 0.35714,0.35714 0.28572,0.14286 0.78572,-0.14285 1.07143,0 0.15059,0.0753 0.20656,0.28185 0.35715,0.35715 0.21686,0.10843 1.92599,-0.10844 2.14285,0 0.15059,0.0753 0.20656,0.28185 0.35715,0.35714 0.1416,0.0708 0.99841,-0.073 1.07142,0 0.0842,0.0842 -0.0842,0.27296 0,0.35714 0.0842,0.0842 0.2381,0 0.35715,0 0.0866,0 1.05994,0.0115 1.07143,0 0.0842,-0.0842 -0.0842,-0.27296 0,-0.35714 0.073,-0.073 0.92982,0.0708 1.07142,0 0.15059,-0.0753 0.21706,-0.26376 0.35715,-0.35714 2.58949,-1.29475 -0.5647,0.37646 1.07143,-0.71429 0.22149,-0.14766 0.52605,-0.16891 0.71428,-0.35714 0.0842,-0.0842 -0.23809,0 -0.35714,0"
       id="path4150"
       inkscape:connector-curvature="0" />
    <path
       style="fill:#000000;fill-rule:evenodd;stroke:#000000;stroke-width:2.91970205px;stroke-linecap:butt;stroke-linejoin:miter;stroke-opacity:1"
       d="m 33.716903,890.23571 12.513,16.68401 49.00929,-46.92377 -52.13754,67.77877 z"
       id="path4152"
       inkscape:connector-curvature="0" />
  </g>
</svg>
